<?xml version="1.0" encoding="utf-8"?>
<!-- Generator: Adobe Illustrator 21.0.0, SVG Export Plug-In . SVG Version: 6.00 Build 0)  -->
<svg version="1.1" id="图层_1" xmlns="http://www.w3.org/2000/svg" xmlns:xlink="http://www.w3.org/1999/xlink" x="0px" y="0px"
	 viewBox="0 0 133 152" style="enable-background:new 0 0 133 152;" xml:space="preserve">
<style type="text/css">
	.st0{filter:url(#filter-2);}
	.st1{fill:#FFFFFF;}
	.st2{fill:#007EFF;}
	.st3{fill:url(#Shape_6_);}
	.st4{fill:url(#Shape_7_);}
	.st5{fill:#0078EB;fill-opacity:0;}
	.st6{fill:#008BFF;}
</style>
<filter  filterUnits="objectBoundingBox" height="113.0%" id="filter-2" width="114.6%" x="-7.3%" y="-4.6%">
	<feOffset  dx="0" dy="2" in="SourceAlpha" result="shadowOffsetOuter1"></feOffset>
	<feGaussianBlur  in="shadowOffsetOuter1" result="shadowBlurOuter1" stdDeviation="2"></feGaussianBlur>
	
		<feColorMatrix  in="shadowBlurOuter1" type="matrix" values="0 0 0 0 0.0470588235   0 0 0 0 0.203921569   0 0 0 0 0.447058824  0 0 0 0.2 0">
		</feColorMatrix>
</filter>
<title>Artboard 5</title>
<desc>Created with Sketch.</desc>
<g id="数据源页面优化">
	<g id="Artboard-5" transform="translate(-77.000000, -48.000000)">
		<g id="未标题-3" transform="translate(94.000000, 51.000000)">
			<g id="Polygon">
				<g class="st0">
					<path id="path-1_2_" d="M54,2.1l36,20.8c3.7,2.1,6,6.1,6,10.4v41.5c0,4.3-2.3,8.2-6,10.4l-36,20.8c-3.7,2.1-8.3,2.1-12,0
						L6,85.1C2.3,83,0,79,0,74.8V33.2C0,29,2.3,25,6,22.9L42,2.1C45.7-0.1,50.2-0.1,54,2.1z"/>
				</g>
				<g>
					<path id="path-1_1_" class="st1" d="M54,2.1l36,20.8c3.7,2.1,6,6.1,6,10.4v41.5c0,4.3-2.3,8.2-6,10.4l-36,20.8
						c-3.7,2.1-8.3,2.1-12,0L6,85.1C2.3,83,0,79,0,74.8V33.2C0,29,2.3,25,6,22.9L42,2.1C45.7-0.1,50.2-0.1,54,2.1z"/>
				</g>
			</g>
		</g>
		<g id="Group" transform="translate(100.000000, 57.000000)">
			<g id="Shape" transform="translate(0.000000, 33.000000)">
				<path class="st2" d="M15,0.5H0.4v35.2c0,2.3,1.3,4.4,3.2,5.6l17.2,10V40.3V17.4h0.1v-11C20.9,3.2,18.3,0.5,15,0.5z"/>
				<path class="st2" d="M48,0.5H34v16.9h14c7.6,0,11.7-2.8,11.7-8.9C59.7,2.8,55.4,0.5,48,0.5z"/>
			</g>
			
				<linearGradient id="Shape_6_" gradientUnits="userSpaceOnUse" x1="-236.8578" y1="276.2979" x2="-235.8578" y2="276.2979" gradientTransform="matrix(69.06 0 0 -39.975 16372.9395 11065.5195)">
				<stop  offset="0" style="stop-color:#00A3FF"/>
				<stop  offset="1" style="stop-color:#03EB9E"/>
			</linearGradient>
			<path id="Shape_1_" class="st3" d="M81.3,22L45.7,1.4c-2-1.1-4.4-1.1-6.5,0L15.5,15c1.2,6.1,11.8,6.3,11.8,6.3h8.9h12.5
				c12.7,0,20.3,4.1,23,12.7c4,3.4,8.5,6.2,12.8,6.5v-13C84.5,25.3,83.3,23.1,81.3,22z"/>
			
				<linearGradient id="Shape_7_" gradientUnits="userSpaceOnUse" x1="-234.7098" y1="276.6493" x2="-235.7098" y2="276.6493" gradientTransform="matrix(50.58 0 0 -44.58 11956.2197 12389.2764)">
				<stop  offset="0" style="stop-color:#1C9AF4"/>
				<stop  offset="1" style="stop-color:#03C2E7"/>
			</linearGradient>
			<path id="Shape_2_" class="st4" d="M71.8,34c0.7,2.2,1,4.7,1,7.5c0,13.1-7.7,20.5-22.5,21.1L34,62.6c7.9,9.7,19.9,16,33.4,16
				c2.6,0,5.3-0.2,7.8-0.7l6.2-3.5c2-1.1,3.2-3.3,3.2-5.6V40.5C80.3,40.2,75.8,37.4,71.8,34z"/>
			<path id="Shape_3_" class="st2" d="M67.4,78.5c-13.5,0-25.5-6.2-33.4-16H34v13.6c0,0,0.1,17.5,8,19.4c0,0,1.7,0.4,3.7-0.8
				l29.5-17C72.7,78.3,70.1,78.5,67.4,78.5z"/>
		</g>
		<g id="未标题-1" transform="translate(82.000000, 173.000000)">
			<path id="形状_1" class="st5" d="M4.6,14.7v4.7c-0.2,2.2-2,3.9-4.2,4c-0.1,0-0.3,0-0.4,0v-7.2C0,14.6,4.6,14.7,4.6,14.7z"/>
			<path id="矩形_10" class="st6" d="M71,0.2v19.9c0,1.8-2.1,3.3-4,3.3c-0.1,0-0.2,0-0.3,0v-1.8c-1.3,1.2-3.1,1.8-4.8,1.8
				c-4.4,0-8-4-8-8.8s3.6-8.8,8-8.8c1.8,0,3.5,0.7,4.8,1.8V3.5c0-1.8,2.1-3.3,4-3.3C70.7,0.2,70.9,0.2,71,0.2z M61.7,10.3
				c-2.1,0-3.8,1.9-3.8,4.3s1.7,4.3,3.8,4.3c2.1,0,3.8-1.9,3.8-4.3S63.9,10.3,61.7,10.3z"/>
			<path id="矩形_10_拷贝" class="st6" d="M35.3,6.3v13.8c0,1.8-1.8,3.3-3.6,3.3c-0.1,0-0.2,0-0.3,0v-1.8
				c-1.3,1.2-3.1,1.8-4.8,1.8c-4.4,0-8-4-8-8.8s3.6-8.8,8-8.8c1.8,0,3.5,0.7,4.8,1.8c0-0.4,1.8-1.3,3.6-1.3
				C35,6.3,35.2,6.3,35.3,6.3z M26.5,10.3c-2.1,0-3.8,1.9-3.8,4.3s1.7,4.3,3.8,4.3s3.8-1.9,3.8-4.3S28.6,10.3,26.5,10.3z"/>
			<path id="矩形_10_拷贝_3" class="st6" d="M88.9,6.3v13.8c0,1.8-1.8,3.3-3.6,3.3c-0.1,0-0.2,0-0.3,0v-1.8
				c-1.3,1.2-3.1,1.8-4.8,1.8c-4.4,0-8-4-8-8.8s3.6-8.8,8-8.8c1.8,0,3.5,0.7,4.8,1.8c0-0.4,1.8-1.3,3.6-1.3
				C88.7,6.3,88.8,6.3,88.9,6.3z M80.2,10.3c-2.1,0-3.8,1.9-3.8,4.3s1.7,4.3,3.8,4.3c2.1,0,3.8-1.9,3.8-4.3S82.3,10.3,80.2,10.3z"/>
			<path id="矩形_18" class="st6" d="M119.9,20.1c0,1.8-2.5,3.3-4.3,3.3c-0.1,0-0.2,0-0.3,0V3.5c0-1.8,2.5-3.3,4.3-3.3
				c0.1,0,0.2,0,0.3,0V20.1z"/>
			<path id="矩形_8" class="st6" d="M52,23.4c-1.8,0-4.5-1.5-4.5-3.3v-6.3c0-2.2-0.7-3.5-2.9-3.5s-2.9,1.3-2.9,3.5v6.3
				c0,1.8-2.6,3.3-4.5,3.3c-0.1,0-0.1,0-0.2,0V12.7c0.1-4.1,3.4-7.1,7.5-7.1c4.1,0,7.5,3,7.5,7.2v10.6C52.1,23.4,52.1,23.4,52,23.4z
				"/>
			<path id="Shape_4_" class="st6" d="M9.8,0.2H5.5H0.4C0.1,0.2,0,0.2,0,0.2v10.3v0.6v12.4c0.1,0,0.3,0,0.4,0c2.2-0.1,4-1.7,4.2-4
				v-4.7l5.8,0c5.2-0.2,7.9-2.8,7.9-7.4C18.3,2.5,15.4,0.2,9.8,0.2z M9.6,10.4H4.7c0-2.1,0-4.6,0-5.9h4.9c2.6,0,4.1,0.8,4.1,2.8
				C13.7,9.5,12.2,10.4,9.6,10.4z"/>
			<path id="Shape_5_" class="st6" d="M111.4,10.9c1.1-1.2,1.6-2.7,1.6-4.3c0-0.1,0-0.2,0-0.3c0-0.1,0-0.2,0-0.3
				c0-3.2-2.6-5.8-5.8-5.8h-5.4h-4.3V13c0,0.1,0,0.2,0,0.4c0,0.1,0,0.1,0,0.2v9.8h10.7c3.2,0,5.8-3.3,5.8-7.1
				C113.9,13.9,112.9,12.2,111.4,10.9z M105.4,4.2c1.8,0,3.3,0.6,3.3,2.2c0,2.5-1.5,2.8-3.3,2.8h-3.6V4.2H105.4z M109.7,16.5
				c0,1.9-1.7,3-3.6,3h-4.3v-4.8V13h4.5c2,0,3.5,1,3.5,2.9L109.7,16.5L109.7,16.5z"/>
		</g>
	</g>
</g>
</svg>
